<svg width="28" height="28" viewBox="0 0 28 28" fill="none" xmlns="http://www.w3.org/2000/svg">
<g clip-path="url(#clip0_857_290)">
<path d="M22.751 27.9999C22.5178 28.0001 22.2899 27.9304 22.0967 27.7998C21.9035 27.6692 21.7539 27.4837 21.6672 27.2672L20.6825 24.802L18.2138 23.7625C18.0021 23.669 17.8226 23.515 17.6981 23.3199C17.5736 23.1248 17.5095 22.8972 17.5138 22.6657C17.5182 22.4343 17.5908 22.2093 17.7226 22.019C17.8544 21.8286 18.0395 21.6815 18.2547 21.596L20.6907 20.6732L21.6672 18.2325C21.757 18.0193 21.9077 17.8372 22.1005 17.7092C22.2933 17.5812 22.5196 17.5129 22.751 17.5129C22.9824 17.5129 23.2087 17.5812 23.4015 17.7092C23.5943 17.8372 23.745 18.0193 23.8348 18.2325L24.816 20.6825L27.266 21.6637C27.4797 21.7531 27.6622 21.9037 27.7906 22.0965C27.919 22.2894 27.9875 22.5159 27.9875 22.7475C27.9875 22.9792 27.919 23.2057 27.7906 23.3985C27.6622 23.5914 27.4797 23.742 27.266 23.8314L24.816 24.8125L23.8348 27.2625C23.7488 27.4799 23.5995 27.6664 23.4062 27.7978C23.213 27.9293 22.9847 27.9997 22.751 27.9999ZM11.6677 24.4999C11.1636 24.5059 10.6712 24.3486 10.264 24.0514C9.85687 23.7543 9.55689 23.3333 9.40898 22.8514L7.52598 16.9632L1.61915 14.9869C1.14241 14.8275 0.728654 14.5208 0.437652 14.1109C0.14665 13.701 -0.00653787 13.2093 0.000213981 12.7066C0.00696584 12.204 0.173308 11.7165 0.475215 11.3146C0.777122 10.9127 1.19897 10.6172 1.67982 10.4707L7.53998 8.68104L9.51398 2.78471C9.66075 2.30039 9.96435 1.8786 10.377 1.58568C10.7897 1.29275 11.288 1.14531 11.7936 1.16654C12.2978 1.16723 12.7881 1.33116 13.1913 1.63379C13.5944 1.93643 13.8887 2.3615 14.0301 2.84538L15.8175 8.69621L21.6858 10.5745C22.1592 10.7333 22.5706 11.0368 22.8622 11.442C23.1537 11.8473 23.3106 12.334 23.3106 12.8332C23.3106 13.3325 23.1537 13.8191 22.8622 14.2244C22.5706 14.6297 22.1592 14.9331 21.6858 15.0919L15.807 16.9725L13.9263 22.8514C13.7784 23.3333 13.4784 23.7543 13.0713 24.0514C12.6641 24.3486 12.1717 24.5059 11.6677 24.4999ZM11.7983 3.52671L9.56765 9.99121C9.50884 10.1677 9.40869 10.3275 9.27556 10.4574C9.14242 10.5873 8.98017 10.6834 8.80232 10.7379L2.36115 12.7025L8.82565 14.939C8.99957 14.997 9.15739 15.0951 9.2863 15.2255C9.41522 15.3558 9.51161 15.5147 9.56765 15.6892L11.6327 22.1409L13.7677 15.6892C13.8243 15.5121 13.9224 15.351 14.054 15.2195C14.1855 15.088 14.3465 14.9898 14.5237 14.9332L20.9753 12.8694C20.9836 12.8671 20.9915 12.8636 20.9987 12.8589L14.5237 10.7332C14.344 10.6758 14.1809 10.5756 14.0484 10.4413C13.9159 10.3069 13.818 10.1425 13.763 9.96204L11.7983 3.52671ZM23.9177 8.16654C23.6576 8.16654 23.4049 8.07963 23.1999 7.91961C22.9949 7.7596 22.8492 7.53567 22.786 7.28338L22.3695 5.61505L20.6977 5.16588C20.4464 5.09837 20.2249 4.94879 20.0684 4.74094C19.9119 4.53308 19.8293 4.27887 19.8339 4.01873C19.8384 3.75858 19.9298 3.50742 20.0935 3.30517C20.2572 3.10293 20.4838 2.96121 20.7373 2.90254L22.3707 2.52338L22.786 0.883044C22.8492 0.630779 22.9949 0.406871 23.1999 0.246883C23.405 0.0868948 23.6576 0 23.9177 0C24.1777 0 24.4303 0.0868948 24.6354 0.246883C24.8404 0.406871 24.9861 0.630779 25.0493 0.883044L25.4623 2.53738L27.1167 2.95154C27.3689 3.01477 27.5928 3.16047 27.7528 3.3655C27.9128 3.57053 27.9997 3.82314 27.9997 4.08321C27.9997 4.34328 27.9128 4.59589 27.7528 4.80092C27.5928 5.00596 27.3689 5.15165 27.1167 5.21488L25.4623 5.62904L25.0493 7.28338C24.9861 7.53567 24.8404 7.7596 24.6354 7.91961C24.4304 8.07963 24.1777 8.16654 23.9177 8.16654Z" fill="#C0C0C0"/>
</g>
<defs>
<clipPath id="clip0_857_290">
<rect width="28" height="28" fill="white"/>
</clipPath>
</defs>
</svg>
