<svg width="30" height="31" viewBox="0 0 30 31" fill="none" xmlns="http://www.w3.org/2000/svg">
<path d="M6.25 14.2084H18.75L14.6375 9.9588C14.5203 9.83872 14.4273 9.69586 14.3639 9.53846C14.3004 9.38106 14.2678 9.21223 14.2678 9.04171C14.2678 8.8712 14.3004 8.70237 14.3639 8.54497C14.4273 8.38757 14.5203 8.24471 14.6375 8.12463C14.8717 7.88406 15.1885 7.74902 15.5188 7.74902C15.849 7.74902 16.1658 7.88406 16.4 8.12463L21.7625 13.6788C22.232 14.161 22.4972 14.816 22.5 15.5C22.4939 16.1796 22.2289 16.8293 21.7625 17.3084L16.4 22.8625C16.2835 22.9821 16.1453 23.0768 15.9933 23.1412C15.8413 23.2056 15.6786 23.2385 15.5143 23.2379C15.3501 23.2373 15.1876 23.2032 15.036 23.1377C14.8845 23.0722 14.747 22.9765 14.6312 22.8561C14.5155 22.7357 14.4239 22.5928 14.3616 22.4358C14.2993 22.2788 14.2675 22.1106 14.2681 21.9409C14.2686 21.7712 14.3016 21.6032 14.3649 21.4467C14.4283 21.2901 14.521 21.148 14.6375 21.0284L18.75 16.7917H6.25C5.91848 16.7917 5.60054 16.6556 5.36612 16.4134C5.13169 16.1712 5 15.8426 5 15.5C5 15.1575 5.13169 14.8289 5.36612 14.5867C5.60054 14.3445 5.91848 14.2084 6.25 14.2084Z" fill="white"/>
</svg>
