<svg width="29" height="29" viewBox="0 0 29 29" fill="none" xmlns="http://www.w3.org/2000/svg">
<path fill-rule="evenodd" clip-rule="evenodd" d="M8.29512 13.9057L9.39591 8.40171C9.85615 6.10048 11.8767 4.44401 14.2235 4.44401C16.5703 4.44401 18.5909 6.10048 19.0511 8.40171L20.1519 13.9057C20.4805 15.5486 21.2881 17.0576 22.4729 18.2424L22.8174 18.5869C23.0063 18.7758 23.1124 19.032 23.1124 19.2991C23.1124 19.7682 22.7887 20.1751 22.3316 20.2806L20.8717 20.6175C16.4971 21.627 11.95 21.627 7.57533 20.6175L6.11541 20.2806C5.65838 20.1751 5.33464 19.7682 5.33464 19.2991C5.33464 19.032 5.44076 18.7758 5.62966 18.5869L5.97418 18.2424C7.15895 17.0576 7.96652 15.5486 8.29512 13.9057ZM5.68024 13.3827L6.78102 7.87873C7.49056 4.33104 10.6056 1.77734 14.2235 1.77734C17.8415 1.77734 20.9565 4.33104 21.666 7.87874L22.7668 13.3827C22.9922 14.5094 23.546 15.5443 24.3585 16.3568L24.703 16.7013C25.392 17.3903 25.7791 18.3247 25.7791 19.2991C25.7791 21.0099 24.5982 22.4943 22.9313 22.879L21.4713 23.2159C20.2253 23.5034 18.9665 23.7158 17.7015 23.8531C17.3601 25.4605 15.9326 26.6664 14.2235 26.6664C12.5144 26.6664 11.087 25.4605 10.7456 23.8531C9.48059 23.7158 8.22173 23.5034 6.9757 23.2159L5.51578 22.879C3.8488 22.4943 2.66797 21.0099 2.66797 19.2991C2.66797 18.3247 3.05504 17.3903 3.74404 16.7013L4.08856 16.3568C4.90106 15.5442 5.45489 14.5094 5.68024 13.3827Z" fill="white"/>
</svg>
