<svg width="20" height="20" viewBox="0 0 20 20" fill="none" xmlns="http://www.w3.org/2000/svg">
<path fill-rule="evenodd" clip-rule="evenodd" d="M19.1578 1.58735C19.4893 1.98511 19.4355 2.57627 19.0378 2.90773L14.4448 6.73519C13.5587 7.47363 12.3613 7.71841 11.2564 7.38696L7.67158 6.3115C7.13828 6.15151 6.56014 6.2874 6.15395 6.66821L2.2038 10.3715C1.82607 10.7256 1.23279 10.7065 0.87867 10.3287C0.524549 9.951 0.543687 9.35771 0.921416 9.00359L4.87156 5.30032C5.76518 4.46255 7.0371 4.1636 8.21036 4.51558L11.7952 5.59103C12.2974 5.74169 12.8417 5.63043 13.2445 5.29478L17.8374 1.46732C18.2352 1.13585 18.8263 1.18959 19.1578 1.58735ZM19.2993 9.31823C19.5032 9.79414 19.2828 10.3453 18.8069 10.5492L13.3101 12.905C12.3808 13.3033 11.3231 13.2722 10.4187 12.82L7.73309 11.4772C7.23841 11.2298 6.64983 11.2624 6.18549 11.5629L2.07191 14.2246C1.63721 14.5059 1.05679 14.3815 0.775514 13.9468C0.494237 13.5121 0.618612 12.9317 1.05331 12.6504L5.16689 9.9887C6.18844 9.3277 7.48331 9.25598 8.57161 9.80013L11.2573 11.143C11.6684 11.3485 12.1491 11.3626 12.5715 11.1816L18.0683 8.82583C18.5442 8.62187 19.0953 8.84233 19.2993 9.31823ZM1.56261 15.625C1.04484 15.625 0.625112 16.0447 0.625112 16.5625C0.625112 17.0803 1.04484 17.5 1.56261 17.5H18.4376C18.9553 17.5 19.3751 17.0803 19.3751 16.5625C19.3751 16.0447 18.9553 15.625 18.4376 15.625H1.56261Z" fill="white"/>
</svg>
