<svg width="45" height="45" viewBox="0 0 45 45" fill="none" xmlns="http://www.w3.org/2000/svg">
<path d="M31.875 20.625H24.375V13.125C24.375 12.6277 24.1775 12.1508 23.8258 11.7992C23.4742 11.4475 22.9973 11.25 22.5 11.25C22.0027 11.25 21.5258 11.4475 21.1742 11.7992C20.8225 12.1508 20.625 12.6277 20.625 13.125V20.625H13.125C12.6277 20.625 12.1508 20.8225 11.7992 21.1742C11.4475 21.5258 11.25 22.0027 11.25 22.5C11.25 22.9973 11.4475 23.4742 11.7992 23.8258C12.1508 24.1775 12.6277 24.375 13.125 24.375H20.625V31.875C20.625 32.3723 20.8225 32.8492 21.1742 33.2008C21.5258 33.5525 22.0027 33.75 22.5 33.75C22.9973 33.75 23.4742 33.5525 23.8258 33.2008C24.1775 32.8492 24.375 32.3723 24.375 31.875V24.375H31.875C32.3723 24.375 32.8492 24.1775 33.2008 23.8258C33.5525 23.4742 33.75 22.9973 33.75 22.5C33.75 22.0027 33.5525 21.5258 33.2008 21.1742C32.8492 20.8225 32.3723 20.625 31.875 20.625Z" fill="white"/>
</svg>
