<svg width="26" height="26" viewBox="0 0 26 26" fill="none" xmlns="http://www.w3.org/2000/svg">
<path d="M18.418 0H7.58463C4.59789 0 2.16797 2.42992 2.16797 5.41667V21.6667C2.16797 22.8984 2.69447 24.076 3.61205 24.8961C4.05839 25.2948 4.74305 25.259 5.14172 24.8116C5.54039 24.3663 5.50247 23.6806 5.05722 23.2819C4.59789 22.8713 4.33464 22.282 4.33464 21.6667C4.33464 20.4718 5.30639 19.5 6.5013 19.5H6.5078L6.54247 25.2926C6.54247 25.9675 7.39938 26.2568 7.80888 25.7205L9.2508 23.8323L10.6927 25.7205C11.1022 26.2568 11.9591 25.9675 11.9591 25.2926L11.9245 19.5H21.668V20.5833C21.668 22.3752 20.2098 23.8333 18.418 23.8333H15.168C14.5689 23.8333 14.0846 24.3176 14.0846 24.9167C14.0846 25.5158 14.5689 26 15.168 26H18.418C21.4047 26 23.8346 23.5701 23.8346 20.5833V5.41667C23.8346 2.42992 21.4047 0 18.418 0ZM4.33464 17.9151V5.41667C4.33464 4.004 5.2403 2.80042 6.5013 2.353V17.3333C5.71264 17.3333 4.97272 17.5457 4.33464 17.9151ZM8.66797 17.3333V2.16667H18.418C20.2098 2.16667 21.668 3.62483 21.668 5.41667V17.3333H8.66797Z" fill="#C0C0C0"/>
</svg>
