<svg width="20" height="20" viewBox="0 0 20 20" fill="none" xmlns="http://www.w3.org/2000/svg">
<g clip-path="url(#clip0_857_297)">
<path d="M5.41654 1.59766C6.35491 1.61225 7.27282 1.8742 8.07757 2.35705C8.88232 2.8399 9.54541 3.52655 9.99987 4.34766C10.4543 3.52655 11.1174 2.8399 11.9222 2.35705C12.7269 1.8742 13.6448 1.61225 14.5832 1.59766C16.0791 1.66265 17.4885 2.31703 18.5034 3.41785C19.5183 4.51867 20.0563 5.97643 19.9999 7.47266C19.9999 11.2618 16.0115 15.4002 12.6665 18.206C11.9197 18.8336 10.9754 19.1777 9.99987 19.1777C9.02433 19.1777 8.08005 18.8336 7.33321 18.206C3.98821 15.4002 -0.000127792 11.2618 -0.000127792 7.47266C-0.0565853 5.97643 0.481422 4.51867 1.49636 3.41785C2.51129 2.31703 3.92066 1.66265 5.41654 1.59766ZM8.40404 16.931C8.85072 17.3071 9.41591 17.5134 9.99987 17.5134C10.5838 17.5134 11.149 17.3071 11.5957 16.931C15.8774 13.3385 18.3332 9.89182 18.3332 7.47266C18.3902 6.41825 18.0279 5.3841 17.3254 4.59574C16.6229 3.80738 15.6372 3.32878 14.5832 3.26432C13.5292 3.32878 12.5435 3.80738 11.841 4.59574C11.1385 5.3841 10.7762 6.41825 10.8332 7.47266C10.8332 7.69367 10.7454 7.90563 10.5891 8.06191C10.4328 8.21819 10.2209 8.30599 9.99987 8.30599C9.77886 8.30599 9.5669 8.21819 9.41062 8.06191C9.25434 7.90563 9.16654 7.69367 9.16654 7.47266C9.22351 6.41825 8.86123 5.3841 8.15874 4.59574C7.45624 3.80738 6.47051 3.32878 5.41654 3.26432C4.36257 3.32878 3.37684 3.80738 2.67434 4.59574C1.97185 5.3841 1.60957 6.41825 1.66654 7.47266C1.66654 9.89182 4.12237 13.3385 8.40404 16.9277V16.931Z" fill="white"/>
</g>
<defs>
<clipPath id="clip0_857_297">
<rect width="20" height="20" fill="white" transform="matrix(-1 0 0 1 20 0)"/>
</clipPath>
</defs>
</svg>
