<svg width="23" height="23" viewBox="0 0 23 23" fill="none" xmlns="http://www.w3.org/2000/svg">
<path d="M23 2.87533C23 3.40241 22.5688 3.83366 22.0417 3.83366H0.958333C0.43125 3.83366 0 3.40241 0 2.87533C0 2.34824 0.43125 1.91699 0.958333 1.91699H22.0417C22.5688 1.91699 23 2.34824 23 2.87533ZM6.70833 19.167H0.958333C0.43125 19.167 0 19.5982 0 20.1253C0 20.6524 0.43125 21.0837 0.958333 21.0837H6.70833C7.23542 21.0837 7.66667 20.6524 7.66667 20.1253C7.66667 19.5982 7.23542 19.167 6.70833 19.167ZM14.375 10.542H0.958333C0.43125 10.542 0 10.9732 0 11.5003C0 12.0274 0.43125 12.4587 0.958333 12.4587H14.375C14.9021 12.4587 15.3333 12.0274 15.3333 11.5003C15.3333 10.9732 14.9021 10.542 14.375 10.542Z" fill="white"/>
</svg>
