<svg width="19" height="19" viewBox="0 0 19 19" fill="none" xmlns="http://www.w3.org/2000/svg">
<path d="M19 2.37467C19 2.81009 18.6438 3.16634 18.2083 3.16634H0.791667C0.35625 3.16634 0 2.81009 0 2.37467C0 1.93926 0.35625 1.58301 0.791667 1.58301H18.2083C18.6438 1.58301 19 1.93926 19 2.37467ZM5.54167 15.833H0.791667C0.35625 15.833 0 16.1893 0 16.6247C0 17.0601 0.35625 17.4163 0.791667 17.4163H5.54167C5.97708 17.4163 6.33333 17.0601 6.33333 16.6247C6.33333 16.1893 5.97708 15.833 5.54167 15.833ZM11.875 8.70801H0.791667C0.35625 8.70801 0 9.06426 0 9.49967C0 9.93509 0.35625 10.2913 0.791667 10.2913H11.875C12.3104 10.2913 12.6667 9.93509 12.6667 9.49967C12.6667 9.06426 12.3104 8.70801 11.875 8.70801Z" fill="#121212"/>
</svg>
