<svg width="24" height="24" viewBox="0 0 24 24" fill="none" xmlns="http://www.w3.org/2000/svg">
<g clip-path="url(#clip0_857_270)">
<path d="M22.204 1.16158C21.063 0.209576 19.57 -0.181424 18.106 0.0805763L14.284 0.775576C13.371 0.942576 12.578 1.40958 12 2.06458C11.422 1.40958 10.629 0.941576 9.715 0.775576L5.894 0.0815763C4.433 -0.181424 2.938 0.209576 1.796 1.16158C0.654 2.11458 0 3.51358 0 5.00058V17.7926C0 20.2096 1.727 22.2786 4.106 22.7116L10.39 23.8546C10.924 23.9516 11.462 24.0006 12 24.0006C12.538 24.0006 13.076 23.9526 13.61 23.8546L19.895 22.7116C22.274 22.2786 24 20.2096 24 17.7926V5.00058C24 3.51358 23.345 2.11458 22.204 1.16158ZM11 21.9276C10.916 21.9156 4.464 20.7436 4.464 20.7436C3.036 20.4836 2 19.2426 2 17.7916V5.00058C2 4.10858 2.393 3.26958 3.078 2.69758C3.623 2.24258 4.301 2.00058 4.997 2.00058C5.176 2.00058 5.357 2.01658 5.537 2.04958L9.358 2.74458C10.31 2.91758 11.001 3.74558 11.001 4.71258V21.9286L11 21.9276ZM22 17.7926C22 19.2436 20.964 20.4846 19.537 20.7446C19.537 20.7446 13.085 21.9156 13 21.9286V4.71158C13 3.74458 13.691 2.91758 14.642 2.74358L18.463 2.04858C19.341 1.88758 20.236 2.12458 20.922 2.69658C21.607 3.26858 22 4.10758 22 4.99958V17.7926ZM8.984 6.22358C8.896 6.70658 8.475 7.04458 8.001 7.04458C7.942 7.04458 4.821 6.48258 4.821 6.48258C4.278 6.38358 3.917 5.86358 4.016 5.31958C4.115 4.77658 4.631 4.41858 5.179 4.51458L8.179 5.05958C8.722 5.15858 9.083 5.67958 8.984 6.22358ZM8.984 10.1786C8.896 10.6616 8.475 10.9996 8.001 10.9996C7.942 10.9996 4.821 10.4376 4.821 10.4376C4.278 10.3386 3.917 9.81858 4.016 9.27458C4.115 8.73158 4.631 8.37158 5.179 8.46958L8.179 9.01458C8.722 9.11358 9.083 9.63458 8.984 10.1786ZM8.984 14.1786C8.896 14.6616 8.475 14.9996 8.001 14.9996C7.942 14.9996 4.821 14.4376 4.821 14.4376C4.278 14.3386 3.917 13.8186 4.016 13.2746C4.115 12.7316 4.631 12.3726 5.179 12.4696L8.179 13.0146C8.722 13.1136 9.083 13.6346 8.984 14.1786ZM19.984 5.32158C20.083 5.86458 19.722 6.38558 19.179 6.48458C19.179 6.48458 16.058 7.04658 15.999 7.04658C15.525 7.04658 15.104 6.70858 15.016 6.22558C14.917 5.68258 15.278 5.16158 15.821 5.06258L18.821 4.51758C19.362 4.42058 19.885 4.77858 19.984 5.32158ZM19.984 9.27658C20.083 9.81958 19.722 10.3406 19.179 10.4396C19.179 10.4396 16.058 11.0016 15.999 11.0016C15.525 11.0016 15.104 10.6636 15.016 10.1806C14.917 9.63758 15.278 9.11658 15.821 9.01758L18.821 8.47258C19.362 8.37458 19.885 8.73358 19.984 9.27658ZM19.984 13.2766C20.083 13.8196 19.722 14.3406 19.179 14.4396C19.179 14.4396 16.058 15.0016 15.999 15.0016C15.525 15.0016 15.104 14.6636 15.016 14.1806C14.917 13.6376 15.278 13.1166 15.821 13.0176L18.821 12.4726C19.362 12.3756 19.885 12.7336 19.984 13.2766ZM17.984 17.6406C18.083 18.1836 17.722 18.7046 17.179 18.8036C17.179 18.8036 16.058 19.0016 15.999 19.0016C15.525 19.0016 15.104 18.6636 15.016 18.1806C14.917 17.6376 15.278 17.1166 15.821 17.0176L16.821 16.8356C17.37 16.7376 17.885 17.0976 17.984 17.6406ZM6.984 17.8616C6.896 18.3446 6.475 18.6826 6.001 18.6826C5.942 18.6826 4.821 18.4846 4.821 18.4846C4.278 18.3856 3.917 17.8656 4.016 17.3216C4.115 16.7786 4.631 16.4156 5.179 16.5166L6.179 16.6986C6.722 16.7976 7.083 17.3176 6.984 17.8616Z" fill="#C0C0C0"/>
</g>
<defs>
<clipPath id="clip0_857_270">
<rect width="24" height="24" fill="white"/>
</clipPath>
</defs>
</svg>
