<svg width="32" height="32" viewBox="0 0 32 32" fill="none" xmlns="http://www.w3.org/2000/svg">
<g clip-path="url(#clip0_857_333)">
<path fill-rule="evenodd" clip-rule="evenodd" d="M31.0607 3.06066C31.6464 2.47487 31.6464 1.52513 31.0607 0.93934C30.4749 0.353553 29.5251 0.353553 28.9393 0.93934L26.3601 3.51857C24.9863 2.56131 23.3161 2 21.5147 2C19.2643 1.99999 17.106 2.89398 15.5147 4.48528L14.3541 5.64586C13.6063 6.39373 13.6063 7.60627 14.3541 8.35414L23.6459 17.6459C24.3937 18.3937 25.6063 18.3937 26.3541 17.6459L27.5147 16.4853C29.106 14.894 30 12.7357 30 10.4853C30 8.68392 29.4387 7.01367 28.4814 5.63989L31.0607 3.06066ZM14.0607 12.9393C14.6464 13.5251 14.6464 14.4749 14.0607 15.0607L11.5607 17.5607L14.4394 20.4394L16.9394 17.9394C17.5251 17.3536 18.4749 17.3536 19.0607 17.9394C19.6465 18.5251 19.6465 19.4749 19.0607 20.0607L16.5607 22.5607L17.6459 23.6459C18.3937 24.3937 18.3937 25.6063 17.6459 26.3541L16.4853 27.5147C14.894 29.106 12.7357 30 10.4853 30C8.68393 30 7.01368 29.4387 5.6399 28.4814L3.06066 31.0607C2.47487 31.6464 1.52513 31.6464 0.93934 31.0607C0.353553 30.4749 0.353553 29.5251 0.93934 28.9393L3.51858 26.3601C2.56132 24.9863 2 23.3161 2 21.5147C2 19.2643 2.89398 17.106 4.48528 15.5147L5.64586 14.3541C6.39373 13.6063 7.60627 13.6063 8.35414 14.3541L9.43934 15.4393L11.9393 12.9393C12.5251 12.3535 13.4749 12.3536 14.0607 12.9393ZM7 17.2426L6.6066 17.636C5.57791 18.6647 5 20.0599 5 21.5147C5 24.5441 7.45584 27 10.4853 27C11.9401 27 13.3353 26.4221 14.364 25.3934L14.7574 25L7 17.2426ZM25.3934 14.364L25 14.7574L17.2426 7L17.636 6.6066C18.6647 5.57791 20.0599 4.99999 21.5147 4.99999C24.5442 4.99999 27 7.45584 27 10.4853C27 11.9401 26.4221 13.3353 25.3934 14.364Z" fill="white"/>
</g>
<defs>
<clipPath id="clip0_857_333">
<rect width="32" height="32" fill="white"/>
</clipPath>
</defs>
</svg>
