<svg width="24" height="24" viewBox="0 0 24 24" fill="none" xmlns="http://www.w3.org/2000/svg">
<g clip-path="url(#clip0_857_325)">
<path d="M12.0003 24C11.2303 24 10.4593 23.927 9.70931 23.782C9.16731 23.677 8.81231 23.153 8.91731 22.611C9.02131 22.069 9.54231 21.716 10.0883 21.819C10.7133 21.94 11.3573 22.001 12.0003 22.001C17.5143 22.001 22.0003 17.515 22.0003 12.001C22.0003 6.487 17.5143 2 12.0003 2C11.3193 2 10.6383 2.069 9.97731 2.205C9.43431 2.317 8.90731 1.968 8.79631 1.427C8.68531 0.886 9.03331 0.357 9.57431 0.246C10.3683 0.083 11.1843 0 12.0003 0C18.6173 0 24.0003 5.383 24.0003 12C24.0003 18.617 18.6173 24 12.0003 24ZM10.4293 6.651L7.29231 9.794C6.90231 10.185 6.90331 10.818 7.29331 11.209C7.68531 11.6 8.31831 11.598 8.70831 11.208L11.0003 8.911V17.001C11.0003 17.553 11.4483 18.001 12.0003 18.001C12.5523 18.001 13.0003 17.553 13.0003 17.001V8.91L15.2923 11.207C15.6833 11.598 16.3153 11.598 16.7063 11.208C17.0983 10.818 17.0983 10.185 16.7083 9.793L13.5723 6.651C13.1413 6.222 12.5783 6.006 12.0143 6.003C12.0093 6.003 12.0053 6 12.0003 6C11.9953 6 11.9913 6.003 11.9873 6.003C11.4223 6.006 10.8593 6.221 10.4293 6.651ZM6.25031 3.818C6.70231 3.5 6.81031 2.876 6.49231 2.424C6.29731 2.148 5.98831 2 5.67331 2C5.47431 2 5.27431 2.059 5.09831 2.182C4.42731 2.655 3.80131 3.199 3.23931 3.799C2.86131 4.202 2.88231 4.835 3.28531 5.212C3.68831 5.59 4.32131 5.57 4.69831 5.166C5.16731 4.666 5.69031 4.212 6.25031 3.818ZM2.70031 8.318C2.90431 7.805 2.65331 7.223 2.13931 7.02C2.01831 6.972 1.89331 6.949 1.77131 6.949C1.37331 6.949 0.997308 7.188 0.841308 7.581C0.556308 8.298 0.341308 9.048 0.200308 9.81C0.100308 10.353 0.459308 10.875 1.00231 10.975C1.54631 11.078 2.06731 10.716 2.16731 10.173C2.28431 9.539 2.46331 8.915 2.70031 8.318ZM6.49231 21.576C6.81031 21.124 6.70131 20.5 6.25031 20.182C5.69031 19.788 5.16831 19.334 4.69931 18.834C4.50231 18.624 4.23631 18.518 3.97031 18.518C3.72531 18.518 3.47931 18.607 3.28631 18.789C2.88331 19.166 2.86231 19.799 3.24031 20.202C3.80231 20.802 4.42831 21.346 5.09931 21.819C5.55231 22.137 6.17531 22.028 6.49331 21.577L6.49231 21.576ZM2.70031 15.682C2.46331 15.085 2.28431 14.461 2.16731 13.827C2.07831 13.346 1.65831 13.009 1.18531 13.009C1.12531 13.009 1.06431 13.014 1.00231 13.026C0.459308 13.126 0.100308 13.648 0.200308 14.191C0.341308 14.953 0.556308 15.703 0.841308 16.42C1.04431 16.934 1.62331 17.186 2.13931 16.981C2.65331 16.777 2.90431 16.195 2.70031 15.682Z" fill="white"/>
</g>
<defs>
<clipPath id="clip0_857_325">
<rect width="24" height="24" fill="white"/>
</clipPath>
</defs>
</svg>
