<svg width="26" height="24" viewBox="0 0 26 24" fill="none" xmlns="http://www.w3.org/2000/svg">
<g clip-path="url(#clip0_857_267)">
<path d="M25.4508 11.4763C24.9232 10.7951 24.1139 10.4034 23.2299 10.4034H22.75V8.33359C22.75 5.46172 20.3201 3.12526 17.3333 3.12526H11.856C11.6892 3.12526 11.5202 3.08672 11.3717 3.01589L7.95383 1.37214C7.50533 1.15651 7.00267 1.04297 6.5 1.04297H4.33333C1.9435 1.04193 0 2.91068 0 5.20859V18.7503C0 21.6221 2.42992 23.9586 5.41667 23.9586H19.0212C21.4327 23.9586 23.517 22.4669 24.2233 20.2013L25.883 13.8305C26.1365 13.0159 25.9783 12.1586 25.4508 11.4763ZM2.16667 18.7503V5.20859C2.16667 4.05964 3.13842 3.12526 4.33333 3.12526H6.5C6.66683 3.12526 6.83583 3.1638 6.98425 3.23464L10.4022 4.87839C10.8507 5.09401 11.3533 5.20755 11.856 5.20755H17.3333C19.1252 5.20755 20.5833 6.60964 20.5833 8.33255V10.4023H9.33292C7.49125 10.4023 5.84675 11.5263 5.22817 13.2357L2.85567 20.6711C2.4245 20.1409 2.16667 19.4742 2.16667 18.7503ZM23.7943 13.2784L22.1347 19.6482C21.7187 20.9805 20.4674 21.8753 19.0212 21.8753H5.41667C5.19133 21.8753 4.97142 21.8534 4.75908 21.8107L7.28758 13.8846C7.58983 13.0482 8.41317 12.4867 9.334 12.4867H23.231C23.4932 12.4867 23.6459 12.6326 23.7131 12.7201C23.7803 12.8076 23.8821 12.9898 23.7943 13.2784Z" fill="#C0C0C0"/>
</g>
<defs>
<clipPath id="clip0_857_267">
<rect width="26" height="24" fill="white"/>
</clipPath>
</defs>
</svg>
