<svg width="24" height="24" viewBox="0 0 24 24" fill="none" xmlns="http://www.w3.org/2000/svg">
<g clip-path="url(#clip0_858_276)">
<path d="M20.466 1.96666L14.78 0.220662C12.166 -0.576338 9.374 0.884662 8.555 3.46066L8.367 3.99966H4.999C2.243 3.99966 0 6.24266 0 8.99966V18.9997C0 21.7567 2.243 23.9997 5 23.9997H11C12.596 23.9997 14.004 23.2337 14.92 22.0657C15.151 22.0977 15.381 22.1177 15.608 22.1177C17.775 22.1177 19.752 20.7037 20.383 18.5537L23.796 8.15666C24.563 5.54366 23.069 2.76666 20.465 1.96766L20.466 1.96666ZM11 21.9997H5C3.346 21.9997 2 20.6537 2 18.9997V8.99966C2 7.34566 3.346 5.99966 5 5.99966H11C12.654 5.99966 14 7.34566 14 8.99966V18.9997C14 20.6537 12.654 21.9997 11 21.9997ZM21.887 7.56166L18.475 17.9587C18.117 19.1727 17.062 19.9807 15.872 20.0907C15.951 19.7377 16 19.3747 16 18.9987V8.99966C16 6.24266 13.757 3.99966 11 3.99966H10.493C11.027 2.49866 12.656 1.65866 14.193 2.13266L19.879 3.87866C21.441 4.35766 22.338 6.02466 21.887 7.56266V7.56166Z" fill="white"/>
</g>
<defs>
<clipPath id="clip0_858_276">
<rect width="24" height="24" fill="white"/>
</clipPath>
</defs>
</svg>
