<svg width="24" height="24" viewBox="0 0 24 24" fill="none" xmlns="http://www.w3.org/2000/svg">
<g clip-path="url(#clip0_857_328)">
<path d="M5.50037 11C7.43037 11 9.00037 9.43 9.00037 7.5C9.00037 5.57 7.43037 4 5.50037 4C3.57037 4 2.00037 5.57 2.00037 7.5C2.00037 9.43 3.57037 11 5.50037 11ZM5.50037 6C6.32737 6 7.00037 6.673 7.00037 7.5C7.00037 8.327 6.32737 9 5.50037 9C4.67337 9 4.00037 8.327 4.00037 7.5C4.00037 6.673 4.67337 6 5.50037 6ZM8.83137 14.314C8.52237 14.773 7.90237 14.896 7.44337 14.588C6.86837 14.202 6.19637 13.999 5.50037 13.999C3.71337 13.999 2.21837 15.336 2.02137 17.109C1.96437 17.62 1.53137 17.999 1.02837 17.999C0.992367 17.999 0.955367 17.997 0.917367 17.993C0.368367 17.932 -0.026633 17.437 0.033367 16.889C0.342367 14.102 2.69237 11.999 5.50037 11.999C6.59437 11.999 7.65037 12.319 8.55737 12.926C9.01637 13.234 9.13937 13.855 8.83137 14.314ZM15.5004 7C17.4304 7 19.0004 5.43 19.0004 3.5C19.0004 1.57 17.4304 0 15.5004 0C13.5704 0 12.0004 1.57 12.0004 3.5C12.0004 5.43 13.5704 7 15.5004 7ZM15.5004 2C16.3274 2 17.0004 2.673 17.0004 3.5C17.0004 4.327 16.3274 5 15.5004 5C14.6734 5 14.0004 4.327 14.0004 3.5C14.0004 2.673 14.6734 2 15.5004 2ZM17.0004 10C13.1414 10 10.0004 13.141 10.0004 17C10.0004 20.859 13.1414 24 17.0004 24C20.8594 24 24.0004 20.859 24.0004 17C24.0004 13.141 20.8594 10 17.0004 10ZM17.0004 22C14.2434 22 12.0004 19.757 12.0004 17C12.0004 14.243 14.2434 12 17.0004 12C19.7574 12 22.0004 14.243 22.0004 17C22.0004 19.757 19.7574 22 17.0004 22ZM20.2224 15.788C20.6044 16.186 20.5914 16.819 20.1934 17.202L17.9804 19.326C17.5284 19.772 16.9284 19.997 16.3274 19.997C15.7264 19.997 15.1244 19.772 14.6644 19.323L13.5324 18.214C13.1374 17.827 13.1324 17.194 13.5184 16.8C13.9044 16.405 14.5374 16.399 14.9324 16.786L16.0634 17.894C16.2074 18.036 16.4424 18.033 16.5854 17.892L18.8084 15.758C19.2054 15.377 19.8394 15.388 20.2224 15.787V15.788Z" fill="white"/>
</g>
<defs>
<clipPath id="clip0_857_328">
<rect width="24" height="24" fill="white"/>
</clipPath>
</defs>
</svg>
